<svg xmlns="http://www.w3.org/2000/svg" style="display: none;">
  <!-- Clock Icon -->
  <symbol id="icon-clock" viewBox="0 0 16 16">
    <circle cx="8" cy="8" r="6.5" stroke="currentColor" strokeWidth="1.2" fill="none" />
    <path d="M8 4.5V8L10.5 10" stroke="currentColor" strokeWidth="1.2" strokeLinecap="round" strokeLinejoin="round" />
  </symbol>

  <!-- Arrow Left -->
  <symbol id="icon-arrow-left" viewBox="0 0 9 17">
    <path d="M0.186834 7.90112C-0.062273 8.15022 -0.062273 8.56005 0.186834 8.80915L7.90112 16.5234C8.15023 16.7725 8.56005 16.7725 8.80916 16.5234C9.05826 16.2743 9.05826 15.8645 8.80916 15.6154L1.54889 8.35513L8.80916 1.09487C9.05826 0.845759 9.05826 0.435938 8.80916 0.18683C8.56005 -0.0622768 8.15023 -0.0622768 7.90112 0.18683L0.186834 7.90112Z" />
  </symbol>

  <!-- Arrow Right -->
  <symbol id="icon-arrow-right" viewBox="0 0 9 17">
    <path d="M8.81317 7.90112C9.06227 8.15022 9.06227 8.56005 8.81317 8.80915L1.09888 16.5234C0.849772 16.7725 0.439951 16.7725 0.190844 16.5234C-0.0582631 16.2743 -0.0582631 15.8645 0.190844 15.6154L7.45111 8.35513L0.190844 1.09487C-0.0582631 0.845759 -0.0582631 0.435938 0.190844 0.18683C0.439951 -0.0622768 0.849772 -0.0622768 1.09888 0.18683L8.81317 7.90112Z" />
  </symbol>
</svg>
